<?xml version="1.0" encoding="UTF-8" standalone="no"?><!DOCTYPE svg PUBLIC "-//W3C//DTD SVG 1.1//EN" "http://www.w3.org/Graphics/SVG/1.1/DTD/svg11.dtd"><svg width="100%" height="100%" viewBox="0 0 2253 2647" version="1.1" xmlns="http://www.w3.org/2000/svg" xmlns:xlink="http://www.w3.org/1999/xlink" xml:space="preserve" xmlns:serif="http://www.serif.com/" style="fill-rule:evenodd;clip-rule:evenodd;stroke-linejoin:round;stroke-miterlimit:2;"><g><path d="M901.768,2238.575c65.304,0 123.645,-10.804 175.024,-32.412c51.379,-21.608 94.835,-52.579 130.367,-92.914c35.533,-40.335 62.663,-89.553 81.39,-147.654c18.727,-58.101 28.09,-124.125 28.09,-198.072l0,-1243.172l486.897,0l0,1243.172c0,128.687 -20.888,246.81 -62.663,354.369c-41.775,107.559 -101.557,200.233 -179.345,278.021c-77.788,77.788 -172.383,138.29 -283.783,181.506c-111.401,43.216 -236.726,64.824 -375.977,64.824c-140.211,0 -266.017,-21.608 -377.417,-64.824c-111.401,-43.216 -205.995,-103.718 -283.783,-181.506c-77.788,-77.788 -137.33,-170.462 -178.625,-278.021c-41.295,-107.559 -61.943,-225.682 -61.943,-354.369l0,-1243.172l486.897,0l0,1241.732c0,73.947 9.363,139.971 28.09,198.072c18.727,58.101 45.857,107.559 81.39,148.374c35.533,40.815 78.989,72.026 130.367,93.634c51.379,21.608 109.72,32.412 175.024,32.412Z" style="fill:#d4ff00;"/><path d="M2252.98,2430.164c0,30.731 -6.002,59.061 -18.007,84.991c-12.004,25.929 -28.09,48.738 -48.258,68.425c-20.167,19.687 -43.936,35.053 -71.306,46.097c-27.37,11.044 -56.421,16.566 -87.152,16.566c-30.731,0 -59.782,-5.522 -87.152,-16.566c-27.37,-11.044 -51.139,-26.41 -71.306,-46.097c-20.167,-19.687 -36.253,-42.495 -48.258,-68.425c-12.004,-25.929 -18.007,-54.26 -18.007,-84.991c0,-29.771 6.002,-58.101 18.007,-84.991c12.004,-26.89 28.09,-50.418 48.258,-70.586c20.167,-20.167 43.936,-36.013 71.306,-47.537c27.37,-11.524 56.421,-17.286 87.152,-17.286c30.731,0 59.782,5.762 87.152,17.286c27.37,11.524 51.139,27.37 71.306,47.537c20.167,20.167 36.253,43.696 48.258,70.586c12.004,26.89 18.007,55.22 18.007,84.991Z" style="fill:#d4ff00;"/><path d="M809.575,220.4c0,30.731 -6.002,59.061 -18.007,84.991c-12.004,25.929 -28.57,48.738 -49.698,68.425c-21.128,19.687 -45.617,35.053 -73.467,46.097c-27.85,11.044 -57.621,16.566 -89.312,16.566c-28.81,0 -56.421,-5.522 -82.83,-16.566c-26.41,-11.044 -49.698,-26.41 -69.865,-46.097c-20.167,-19.687 -36.253,-42.495 -48.258,-68.425c-12.004,-25.929 -18.007,-54.26 -18.007,-84.991c0,-29.771 6.002,-58.101 18.007,-84.991c12.004,-26.89 28.09,-50.418 48.258,-70.586c20.167,-20.167 43.456,-36.013 69.865,-47.537c26.41,-11.524 54.02,-17.286 82.83,-17.286c31.692,0 61.462,5.762 89.312,17.286c27.85,11.524 52.339,27.37 73.467,47.537c21.128,20.167 37.694,43.696 49.698,70.586c12.004,26.89 18.007,55.22 18.007,84.991Z" style="fill:#d4ff00;"/><path d="M1443.405,220.4c0,30.731 -6.002,59.061 -18.007,84.991c-12.004,25.929 -28.09,48.738 -48.258,68.425c-20.167,19.687 -43.936,35.053 -71.306,46.097c-27.37,11.044 -56.421,16.566 -87.152,16.566c-30.731,0 -59.782,-5.522 -87.152,-16.566c-27.37,-11.044 -51.139,-26.41 -71.306,-46.097c-20.167,-19.687 -36.253,-42.495 -48.258,-68.425c-12.004,-25.929 -18.007,-54.26 -18.007,-84.991c0,-29.771 6.002,-58.101 18.007,-84.991c12.004,-26.89 28.09,-50.418 48.258,-70.586c20.167,-20.167 43.936,-36.013 71.306,-47.537c27.37,-11.524 56.421,-17.286 87.152,-17.286c30.731,0 59.782,5.762 87.152,17.286c27.37,11.524 51.139,27.37 71.306,47.537c20.167,20.167 36.253,43.696 48.258,70.586c12.004,26.89 18.007,55.22 18.007,84.991Z" style="fill:#d4ff00;"/></g></svg>